<svg width="14" height="14" viewBox="0 0 14 14" fill="none" xmlns="http://www.w3.org/2000/svg">
<path d="M6.36341 2.26404H2.19187C1.87577 2.26404 1.57261 2.38961 1.34909 2.61313C1.12557 2.83665 1 3.1398 1 3.45591V11.799C1 12.1151 1.12557 12.4182 1.34909 12.6418C1.57261 12.8653 1.87577 12.9909 2.19187 12.9909H10.5349C10.8511 12.9909 11.1542 12.8653 11.3777 12.6418C11.6012 12.4182 11.7268 12.1151 11.7268 11.799V7.62745" stroke="#F20F38" stroke-linecap="round" stroke-linejoin="round"/>
<path d="M10.833 1.37027C11.0701 1.13319 11.3916 1 11.7269 1C12.0622 1 12.3837 1.13319 12.6208 1.37027C12.8579 1.60734 12.9911 1.92889 12.9911 2.26417C12.9911 2.59945 12.8579 2.92099 12.6208 3.15807L6.95942 8.81944L4.57568 9.41538L5.17162 7.03164L10.833 1.37027Z" stroke="#F20F38" stroke-linecap="round" stroke-linejoin="round"/>
</svg>
