<svg width="20" height="21" viewBox="0 0 20 21" fill="none" xmlns="http://www.w3.org/2000/svg">
<path d="M9.05099 2.90662H2.78911C2.31461 2.90662 1.85954 3.09511 1.52402 3.43063C1.18849 3.76616 1 4.22122 1 4.69573V17.2195C1 17.694 1.18849 18.1491 1.52402 18.4846C1.85954 18.8201 2.31461 19.0086 2.78911 19.0086H15.3129C15.7874 19.0086 16.2424 18.8201 16.578 18.4846C16.9135 18.1491 17.102 17.694 17.102 17.2195V10.9576" stroke="#F20F38" stroke-width="2" stroke-linecap="round" stroke-linejoin="round"/>
<path d="M15.761 1.56484C16.1169 1.20896 16.5995 1.00903 17.1028 1.00903C17.6061 1.00903 18.0888 1.20896 18.4447 1.56484C18.8005 1.92071 19.0005 2.40339 19.0005 2.90667C19.0005 3.40996 18.8005 3.89263 18.4447 4.2485L9.94638 12.7468L6.36816 13.6413L7.26272 10.0631L15.761 1.56484Z" stroke="#F20F38" stroke-width="2" stroke-linecap="round" stroke-linejoin="round"/>
</svg>
