<svg width="99" height="34" viewBox="0 0 99 34" fill="none" xmlns="http://www.w3.org/2000/svg">
<path d="M18.1494 12.7656C18.1494 13.1855 18.0713 13.5518 17.915 13.8643C16.6357 16.3936 14.8926 19.0547 12.6855 21.8477C12.373 22.2578 12.2168 22.6289 12.2168 22.9609C12.2168 23.4785 12.2461 24.2549 12.3047 25.29C12.3633 26.3252 12.3926 27.0967 12.3926 27.6045C12.3926 27.7803 12.3535 27.8877 12.2754 27.9268C12.2559 27.9365 12.124 27.9609 11.8799 28C11.5283 28.0586 10.6494 28.0879 9.24316 28.0879C7.82715 28.0879 6.92383 28.0586 6.5332 28C6.25977 27.9609 6.12305 27.8193 6.12305 27.5752C6.12305 27.0576 6.16699 26.2715 6.25488 25.2168C6.34277 24.1523 6.38672 23.3564 6.38672 22.8291C6.38672 22.5166 6.26953 22.1797 6.03516 21.8184C4.85352 20.1484 3.16406 17.5898 0.966797 14.1426C0.742188 13.7617 0.629883 13.4492 0.629883 13.2051C0.629883 12.6191 0.600586 11.7402 0.541992 10.5684C0.483398 9.39648 0.454102 8.51758 0.454102 7.93164C0.454102 7.60938 0.551758 7.44824 0.74707 7.44824C1.34277 7.44824 2.24609 7.47266 3.45703 7.52148C4.66797 7.57031 5.57617 7.59473 6.18164 7.59473C6.40625 7.59473 6.51855 7.66797 6.51855 7.81445C6.51855 8.3125 6.49414 9.06445 6.44531 10.0703C6.40625 11.0664 6.38672 11.8135 6.38672 12.3115C6.38672 12.6045 6.81641 13.3369 7.67578 14.5088C8.35938 15.4268 8.9209 16.1348 9.36035 16.6328C9.76074 16.1641 10.293 15.4609 10.957 14.5234C11.7969 13.3516 12.2168 12.6436 12.2168 12.3994C12.2168 11.9111 12.1777 11.1738 12.0996 10.1875C12.0312 9.19141 11.9971 8.44922 11.9971 7.96094C11.9971 7.75586 12.041 7.63867 12.1289 7.60938C12.1289 7.60938 12.251 7.60938 12.4951 7.60938C13.0811 7.60938 13.96 7.58496 15.1318 7.53613C16.3135 7.47754 17.2021 7.44824 17.7979 7.44824C17.9932 7.44824 18.0908 7.6582 18.0908 8.07812C18.0908 8.5957 18.1006 9.37695 18.1201 10.4219C18.1396 11.457 18.1494 12.2383 18.1494 12.7656ZM37.4707 20.8076C37.4707 23.2979 37.1729 24.9971 36.5771 25.9053C35.4834 27.5654 32.7539 28.3955 28.3887 28.3955C26.416 28.3955 24.8975 28.2441 23.833 27.9414C22.1338 27.4531 21.0303 26.5205 20.5225 25.1436C20.2686 24.4697 20.1416 23.2686 20.1416 21.54C20.1416 21.1396 20.1562 20.5439 20.1855 19.7529C20.2148 18.9619 20.2295 18.3711 20.2295 17.9805C20.2295 16.8477 20.1758 15.1484 20.0684 12.8828C19.9609 10.6172 19.9072 8.92285 19.9072 7.7998C19.9072 7.56543 20.0098 7.44824 20.2148 7.44824C20.8105 7.44824 21.709 7.47266 22.9102 7.52148C24.1211 7.57031 25.0244 7.59473 25.6201 7.59473C25.8643 7.59473 25.9863 7.70215 25.9863 7.91699C25.9863 9.20605 25.9424 11.1396 25.8545 13.7178C25.7764 16.2861 25.7373 18.2148 25.7373 19.5039C25.7373 21.0371 25.8984 22.0723 26.2207 22.6094C26.6504 23.3418 27.5488 23.708 28.916 23.708C30.918 23.708 31.9189 22.7363 31.9189 20.793C31.9189 19.377 31.8848 17.2529 31.8164 14.4209C31.748 11.5889 31.7139 9.46484 31.7139 8.04883C31.7139 7.74609 31.8359 7.59473 32.0801 7.59473C32.6562 7.59473 33.5254 7.57031 34.6875 7.52148C35.8496 7.47266 36.7188 7.44824 37.2949 7.44824C37.5781 7.44824 37.7197 7.56543 37.7197 7.7998C37.7197 8.92285 37.6709 10.6172 37.5732 12.8828C37.4854 15.1484 37.4414 16.8477 37.4414 17.9805C37.4414 18.293 37.4463 18.7666 37.4561 19.4014C37.4658 20.0264 37.4707 20.4951 37.4707 20.8076ZM57.9199 15.2852C57.9199 17.6484 57.2998 19.5625 56.0596 21.0273C54.7314 22.5801 52.9004 23.3564 50.5664 23.3564C50.1758 23.3564 49.585 23.3369 48.7939 23.2979C48.0127 23.249 47.4268 23.2246 47.0361 23.2246C46.6162 23.2246 46.4062 23.4053 46.4062 23.7666C46.4062 24.2158 46.4502 24.8848 46.5381 25.7734C46.626 26.6621 46.6699 27.3262 46.6699 27.7656C46.6699 27.9902 46.5674 28.1025 46.3623 28.1025C45.7666 28.1025 44.873 28.083 43.6816 28.0439C42.4902 28.0146 41.5967 28 41.001 28C40.7178 28 40.5762 27.8584 40.5762 27.5752C40.5762 26.4912 40.5908 24.8652 40.6201 22.6973C40.6592 20.5195 40.6787 18.8887 40.6787 17.8047C40.6787 14.7383 40.5469 11.5156 40.2832 8.13672L40.2686 7.93164C40.249 7.74609 40.3955 7.63379 40.708 7.59473C41.4697 7.49707 43.1494 7.44824 45.7471 7.44824C47.2803 7.44824 48.75 7.46777 50.1562 7.50684C52.4707 7.5752 54.3359 8.30273 55.752 9.68945C57.1973 11.1152 57.9199 12.9805 57.9199 15.2852ZM52.0752 15.5195C52.0752 13.2441 50.9668 12.1064 48.75 12.1064C47.1875 12.1064 46.3672 12.1943 46.2891 12.3701C46.2207 12.4971 46.1865 13.625 46.1865 15.7539C46.1865 16.0566 46.1963 16.5059 46.2158 17.1016C46.2451 17.6875 46.2598 18.1318 46.2598 18.4346C46.2598 18.6299 47.1387 18.7275 48.8965 18.7275C51.0156 18.7275 52.0752 17.6582 52.0752 15.5195ZM79.2627 27.6338C79.2627 27.8096 79.1406 27.9316 78.8965 28C78.6035 28.0781 77.6953 28.1172 76.1719 28.1172C74.7754 28.1172 73.877 28.0781 73.4766 28C73.1445 27.9316 72.9346 27.7119 72.8467 27.3408C72.5146 25.9346 72.2559 25.1826 72.0703 25.085C71.9141 25.0166 70.6055 24.9824 68.1445 24.9824C66.4844 24.9824 65.6006 25.0264 65.4932 25.1143C65.3271 25.2705 65.1416 25.793 64.9365 26.6816C64.751 27.4922 64.5264 27.9316 64.2627 28C63.9307 28.0781 62.8174 28.1172 60.9229 28.1172C59.4287 28.1172 58.6816 27.9756 58.6816 27.6924C58.6816 27.4385 59.7852 24.3184 61.9922 18.332C64.3848 11.8574 65.6836 8.29785 65.8887 7.65332C66.0059 7.28223 66.1426 7.09668 66.2988 7.09668C66.5625 7.09668 66.9678 7.12109 67.5146 7.16992C68.0713 7.21875 68.4863 7.24316 68.7598 7.24316C69.0234 7.24316 69.4092 7.22852 69.917 7.19922C70.4346 7.16016 70.8203 7.14062 71.0742 7.14062C71.2598 7.14062 71.4307 7.30176 71.5869 7.62402C72.0654 8.64941 73.4619 12.165 75.7764 18.1709C78.1006 24.2158 79.2627 27.3701 79.2627 27.6338ZM68.877 14.2891C68.6719 14.7188 68.3252 15.6514 67.8369 17.0869C67.3096 18.6104 67.0459 19.5039 67.0459 19.7676C67.0459 19.9434 67.3389 20.041 67.9248 20.0605C68.2275 20.0801 68.7256 20.0898 69.4189 20.0898C70.0635 20.0898 70.4199 20.0117 70.4883 19.8555C70.5078 19.8066 70.5176 19.7383 70.5176 19.6504C70.5176 19.3281 70.293 18.4395 69.8438 16.9844C69.4043 15.5781 69.082 14.6797 68.877 14.2891ZM97.5732 12.7656C97.5732 13.1855 97.4951 13.5518 97.3389 13.8643C96.0596 16.3936 94.3164 19.0547 92.1094 21.8477C91.7969 22.2578 91.6406 22.6289 91.6406 22.9609C91.6406 23.4785 91.6699 24.2549 91.7285 25.29C91.7871 26.3252 91.8164 27.0967 91.8164 27.6045C91.8164 27.7803 91.7773 27.8877 91.6992 27.9268C91.6797 27.9365 91.5479 27.9609 91.3037 28C90.9521 28.0586 90.0732 28.0879 88.667 28.0879C87.251 28.0879 86.3477 28.0586 85.957 28C85.6836 27.9609 85.5469 27.8193 85.5469 27.5752C85.5469 27.0576 85.5908 26.2715 85.6787 25.2168C85.7666 24.1523 85.8105 23.3564 85.8105 22.8291C85.8105 22.5166 85.6934 22.1797 85.459 21.8184C84.2773 20.1484 82.5879 17.5898 80.3906 14.1426C80.166 13.7617 80.0537 13.4492 80.0537 13.2051C80.0537 12.6191 80.0244 11.7402 79.9658 10.5684C79.9072 9.39648 79.8779 8.51758 79.8779 7.93164C79.8779 7.60938 79.9756 7.44824 80.1709 7.44824C80.7666 7.44824 81.6699 7.47266 82.8809 7.52148C84.0918 7.57031 85 7.59473 85.6055 7.59473C85.8301 7.59473 85.9424 7.66797 85.9424 7.81445C85.9424 8.3125 85.918 9.06445 85.8691 10.0703C85.8301 11.0664 85.8105 11.8135 85.8105 12.3115C85.8105 12.6045 86.2402 13.3369 87.0996 14.5088C87.7832 15.4268 88.3447 16.1348 88.7842 16.6328C89.1846 16.1641 89.7168 15.4609 90.3809 14.5234C91.2207 13.3516 91.6406 12.6436 91.6406 12.3994C91.6406 11.9111 91.6016 11.1738 91.5234 10.1875C91.4551 9.19141 91.4209 8.44922 91.4209 7.96094C91.4209 7.75586 91.4648 7.63867 91.5527 7.60938C91.5527 7.60938 91.6748 7.60938 91.9189 7.60938C92.5049 7.60938 93.3838 7.58496 94.5557 7.53613C95.7373 7.47754 96.626 7.44824 97.2217 7.44824C97.417 7.44824 97.5146 7.6582 97.5146 8.07812C97.5146 8.5957 97.5244 9.37695 97.5439 10.4219C97.5635 11.457 97.5732 12.2383 97.5732 12.7656Z" fill="white"/>
</svg>
