<svg width="180" height="80" viewBox="0 0 394 113" fill="white" xmlns="http://www.w3.org/2000/svg">
<path d="M60.498 41.2188C60.498 42.6185 60.2376 43.8392 59.7168 44.8809C55.4525 53.3118 49.6419 62.1823 42.2852 71.4922C41.2435 72.8594 40.7227 74.0964 40.7227 75.2031C40.7227 76.9284 40.8203 79.5163 41.0156 82.9668C41.2109 86.4173 41.3086 88.9889 41.3086 90.6816C41.3086 91.2676 41.1784 91.6257 40.918 91.7559C40.8529 91.7884 40.4134 91.8698 39.5996 92C38.4277 92.1953 35.498 92.293 30.8105 92.293C26.0905 92.293 23.0794 92.1953 21.7773 92C20.8659 91.8698 20.4102 91.3978 20.4102 90.584C20.4102 88.8587 20.5566 86.2383 20.8496 82.7227C21.1426 79.1745 21.2891 76.5215 21.2891 74.7637C21.2891 73.722 20.8984 72.599 20.1172 71.3945C16.1784 65.8281 10.5469 57.2995 3.22266 45.8086C2.47396 44.5391 2.09961 43.4974 2.09961 42.6836C2.09961 40.7305 2.00195 37.8008 1.80664 33.8945C1.61133 29.9883 1.51367 27.0586 1.51367 25.1055C1.51367 24.0312 1.83919 23.4941 2.49023 23.4941C4.47591 23.4941 7.48698 23.5755 11.5234 23.7383C15.5599 23.901 18.5872 23.9824 20.6055 23.9824C21.3542 23.9824 21.7285 24.2266 21.7285 24.7148C21.7285 26.375 21.6471 28.8815 21.4844 32.2344C21.3542 35.5547 21.2891 38.0449 21.2891 39.7051C21.2891 40.6816 22.7214 43.123 25.5859 47.0293C27.8646 50.0892 29.7363 52.4492 31.2012 54.1094C32.5358 52.5469 34.3099 50.2031 36.5234 47.0781C39.3229 43.1719 40.7227 40.8118 40.7227 39.998C40.7227 38.3704 40.5924 35.9128 40.332 32.625C40.1042 29.3047 39.9902 26.8307 39.9902 25.2031C39.9902 24.5195 40.1367 24.1289 40.4297 24.0312C40.4297 24.0312 40.8366 24.0312 41.6504 24.0312C43.6035 24.0312 46.5332 23.9499 50.4395 23.7871C54.3783 23.5918 57.3405 23.4941 59.3262 23.4941C59.9772 23.4941 60.3027 24.194 60.3027 25.5938C60.3027 27.319 60.3353 29.9232 60.4004 33.4062C60.4655 36.8568 60.498 39.4609 60.498 41.2188ZM124.902 68.0254C124.902 76.3262 123.91 81.9902 121.924 85.0176C118.278 90.5514 109.18 93.3184 94.6289 93.3184C88.0534 93.3184 82.9915 92.8138 79.4434 91.8047C73.7793 90.1771 70.1009 87.0684 68.4082 82.4785C67.5618 80.2324 67.1387 76.2285 67.1387 70.4668C67.1387 69.1322 67.1875 67.1465 67.2852 64.5098C67.3828 61.873 67.4316 59.9036 67.4316 58.6016C67.4316 54.8255 67.2526 49.1615 66.8945 41.6094C66.5365 34.0573 66.3574 28.4095 66.3574 24.666C66.3574 23.8848 66.6992 23.4941 67.3828 23.4941C69.3685 23.4941 72.3633 23.5755 76.3672 23.7383C80.4036 23.901 83.4147 23.9824 85.4004 23.9824C86.2142 23.9824 86.6211 24.3405 86.6211 25.0566C86.6211 29.3535 86.4746 35.7988 86.1816 44.3926C85.9212 52.9538 85.791 59.3828 85.791 63.6797C85.791 68.7904 86.3281 72.2409 87.4023 74.0312C88.8346 76.4727 91.8294 77.6934 96.3867 77.6934C103.06 77.6934 106.396 74.4544 106.396 67.9766C106.396 63.2565 106.283 56.1764 106.055 46.7363C105.827 37.2962 105.713 30.2161 105.713 25.4961C105.713 24.487 106.12 23.9824 106.934 23.9824C108.854 23.9824 111.751 23.901 115.625 23.7383C119.499 23.5755 122.396 23.4941 124.316 23.4941C125.26 23.4941 125.732 23.8848 125.732 24.666C125.732 28.4095 125.57 34.0573 125.244 41.6094C124.951 49.1615 124.805 54.8255 124.805 58.6016C124.805 59.6432 124.821 61.222 124.854 63.3379C124.886 65.4212 124.902 66.9837 124.902 68.0254ZM193.066 49.6172C193.066 57.4948 190.999 63.875 186.865 68.7578C182.438 73.9336 176.335 76.5215 168.555 76.5215C167.253 76.5215 165.283 76.4564 162.646 76.3262C160.042 76.1634 158.089 76.082 156.787 76.082C155.387 76.082 154.688 76.6842 154.688 77.8887C154.688 79.3861 154.834 81.6159 155.127 84.5781C155.42 87.5404 155.566 89.7539 155.566 91.2188C155.566 91.9674 155.225 92.3418 154.541 92.3418C152.555 92.3418 149.577 92.2767 145.605 92.1465C141.634 92.0488 138.656 92 136.67 92C135.726 92 135.254 91.528 135.254 90.584C135.254 86.9707 135.303 81.5508 135.4 74.3242C135.531 67.0651 135.596 61.6289 135.596 58.0156C135.596 47.7943 135.156 37.0521 134.277 25.7891L134.229 25.1055C134.163 24.487 134.652 24.1126 135.693 23.9824C138.232 23.6569 143.831 23.4941 152.49 23.4941C157.601 23.4941 162.5 23.5592 167.188 23.6895C174.902 23.9173 181.12 26.3424 185.84 30.9648C190.658 35.7174 193.066 41.9349 193.066 49.6172ZM173.584 50.3984C173.584 42.8138 169.889 39.0215 162.5 39.0215C157.292 39.0215 154.557 39.3145 154.297 39.9004C154.069 40.3236 153.955 44.0833 153.955 51.1797C153.955 52.1888 153.988 53.6862 154.053 55.6719C154.15 57.625 154.199 59.1061 154.199 60.1152C154.199 60.7663 157.129 61.0918 162.988 61.0918C170.052 61.0918 173.584 57.5273 173.584 50.3984ZM264.209 90.7793C264.209 91.3652 263.802 91.7721 262.988 92C262.012 92.2604 258.984 92.3906 253.906 92.3906C249.251 92.3906 246.257 92.2604 244.922 92C243.815 91.7721 243.115 91.0397 242.822 89.8027C241.715 85.1152 240.853 82.6087 240.234 82.2832C239.714 82.0553 235.352 81.9414 227.148 81.9414C221.615 81.9414 218.669 82.0879 218.311 82.3809C217.757 82.9017 217.139 84.6432 216.455 87.6055C215.837 90.3073 215.088 91.7721 214.209 92C213.102 92.2604 209.391 92.3906 203.076 92.3906C198.096 92.3906 195.605 91.9186 195.605 90.9746C195.605 90.1283 199.284 79.7279 206.641 59.7734C214.616 38.1914 218.945 26.3262 219.629 24.1777C220.02 22.9408 220.475 22.3223 220.996 22.3223C221.875 22.3223 223.226 22.4036 225.049 22.5664C226.904 22.7292 228.288 22.8105 229.199 22.8105C230.078 22.8105 231.364 22.7617 233.057 22.6641C234.782 22.5339 236.068 22.4688 236.914 22.4688C237.533 22.4688 238.102 23.0059 238.623 24.0801C240.218 27.498 244.873 39.2168 252.588 59.2363C260.335 79.3861 264.209 89.9004 264.209 90.7793ZM229.59 46.2969C228.906 47.7292 227.751 50.8379 226.123 55.623C224.365 60.7012 223.486 63.6797 223.486 64.5586C223.486 65.1445 224.463 65.4701 226.416 65.5352C227.425 65.6003 229.085 65.6328 231.396 65.6328C233.545 65.6328 234.733 65.3724 234.961 64.8516C235.026 64.6888 235.059 64.4609 235.059 64.168C235.059 63.0938 234.31 60.1315 232.812 55.2812C231.348 50.5938 230.273 47.599 229.59 46.2969ZM325.244 41.2188C325.244 42.6185 324.984 43.8392 324.463 44.8809C320.199 53.3118 314.388 62.1823 307.031 71.4922C305.99 72.8594 305.469 74.0964 305.469 75.2031C305.469 76.9284 305.566 79.5163 305.762 82.9668C305.957 86.4173 306.055 88.9889 306.055 90.6816C306.055 91.2676 305.924 91.6257 305.664 91.7559C305.599 91.7884 305.16 91.8698 304.346 92C303.174 92.1953 300.244 92.293 295.557 92.293C290.837 92.293 287.826 92.1953 286.523 92C285.612 91.8698 285.156 91.3978 285.156 90.584C285.156 88.8587 285.303 86.2383 285.596 82.7227C285.889 79.1745 286.035 76.5215 286.035 74.7637C286.035 73.722 285.645 72.599 284.863 71.3945C280.924 65.8281 275.293 57.2995 267.969 45.8086C267.22 44.5391 266.846 43.4974 266.846 42.6836C266.846 40.7305 266.748 37.8008 266.553 33.8945C266.357 29.9883 266.26 27.0586 266.26 25.1055C266.26 24.0312 266.585 23.4941 267.236 23.4941C269.222 23.4941 272.233 23.5755 276.27 23.7383C280.306 23.901 283.333 23.9824 285.352 23.9824C286.1 23.9824 286.475 24.2266 286.475 24.7148C286.475 26.375 286.393 28.8815 286.23 32.2344C286.1 35.5547 286.035 38.0449 286.035 39.7051C286.035 40.6816 287.467 43.123 290.332 47.0293C292.611 50.0892 294.482 52.4492 295.947 54.1094C297.282 52.5469 299.056 50.2031 301.27 47.0781C304.069 43.1719 305.469 40.8118 305.469 39.998C305.469 38.3704 305.339 35.9128 305.078 32.625C304.85 29.3047 304.736 26.8307 304.736 25.2031C304.736 24.5195 304.883 24.1289 305.176 24.0312C305.176 24.0312 305.583 24.0312 306.396 24.0312C308.35 24.0312 311.279 23.9499 315.186 23.7871C319.124 23.5918 322.087 23.4941 324.072 23.4941C324.723 23.4941 325.049 24.194 325.049 25.5938C325.049 27.319 325.081 29.9232 325.146 33.4062C325.212 36.8568 325.244 39.4609 325.244 41.2188Z" fill="white"/>
</svg>
