<svg width="98" height="22" viewBox="0 0 98 22" fill="white" xmlns="http://www.w3.org/2000/svg">
<path d="M18.1494 5.76562C18.1494 6.18555 18.0713 6.55176 17.915 6.86426C16.6357 9.39355 14.8926 12.0547 12.6855 14.8477C12.373 15.2578 12.2168 15.6289 12.2168 15.9609C12.2168 16.4785 12.2461 17.2549 12.3047 18.29C12.3633 19.3252 12.3926 20.0967 12.3926 20.6045C12.3926 20.7803 12.3535 20.8877 12.2754 20.9268C12.2559 20.9365 12.124 20.9609 11.8799 21C11.5283 21.0586 10.6494 21.0879 9.24316 21.0879C7.82715 21.0879 6.92383 21.0586 6.5332 21C6.25977 20.9609 6.12305 20.8193 6.12305 20.5752C6.12305 20.0576 6.16699 19.2715 6.25488 18.2168C6.34277 17.1523 6.38672 16.3564 6.38672 15.8291C6.38672 15.5166 6.26953 15.1797 6.03516 14.8184C4.85352 13.1484 3.16406 10.5898 0.966797 7.14258C0.742188 6.76172 0.629883 6.44922 0.629883 6.20508C0.629883 5.61914 0.600586 4.74023 0.541992 3.56836C0.483398 2.39648 0.454102 1.51758 0.454102 0.931641C0.454102 0.609375 0.551758 0.448242 0.74707 0.448242C1.34277 0.448242 2.24609 0.472656 3.45703 0.521484C4.66797 0.570312 5.57617 0.594727 6.18164 0.594727C6.40625 0.594727 6.51855 0.667969 6.51855 0.814453C6.51855 1.3125 6.49414 2.06445 6.44531 3.07031C6.40625 4.06641 6.38672 4.81348 6.38672 5.31152C6.38672 5.60449 6.81641 6.33691 7.67578 7.50879C8.35938 8.42676 8.9209 9.13477 9.36035 9.63281C9.76074 9.16406 10.293 8.46094 10.957 7.52344C11.7969 6.35156 12.2168 5.64355 12.2168 5.39941C12.2168 4.91113 12.1777 4.17383 12.0996 3.1875C12.0312 2.19141 11.9971 1.44922 11.9971 0.960938C11.9971 0.755859 12.041 0.638672 12.1289 0.609375C12.1289 0.609375 12.251 0.609375 12.4951 0.609375C13.0811 0.609375 13.96 0.584961 15.1318 0.536133C16.3135 0.477539 17.2021 0.448242 17.7979 0.448242C17.9932 0.448242 18.0908 0.658203 18.0908 1.07812C18.0908 1.5957 18.1006 2.37695 18.1201 3.42188C18.1396 4.45703 18.1494 5.23828 18.1494 5.76562ZM37.4707 13.8076C37.4707 16.2979 37.1729 17.9971 36.5771 18.9053C35.4834 20.5654 32.7539 21.3955 28.3887 21.3955C26.416 21.3955 24.8975 21.2441 23.833 20.9414C22.1338 20.4531 21.0303 19.5205 20.5225 18.1436C20.2686 17.4697 20.1416 16.2686 20.1416 14.54C20.1416 14.1396 20.1562 13.5439 20.1855 12.7529C20.2148 11.9619 20.2295 11.3711 20.2295 10.9805C20.2295 9.84766 20.1758 8.14844 20.0684 5.88281C19.9609 3.61719 19.9072 1.92285 19.9072 0.799805C19.9072 0.56543 20.0098 0.448242 20.2148 0.448242C20.8105 0.448242 21.709 0.472656 22.9102 0.521484C24.1211 0.570312 25.0244 0.594727 25.6201 0.594727C25.8643 0.594727 25.9863 0.702148 25.9863 0.916992C25.9863 2.20605 25.9424 4.13965 25.8545 6.71777C25.7764 9.28613 25.7373 11.2148 25.7373 12.5039C25.7373 14.0371 25.8984 15.0723 26.2207 15.6094C26.6504 16.3418 27.5488 16.708 28.916 16.708C30.918 16.708 31.9189 15.7363 31.9189 13.793C31.9189 12.377 31.8848 10.2529 31.8164 7.4209C31.748 4.58887 31.7139 2.46484 31.7139 1.04883C31.7139 0.746094 31.8359 0.594727 32.0801 0.594727C32.6562 0.594727 33.5254 0.570312 34.6875 0.521484C35.8496 0.472656 36.7188 0.448242 37.2949 0.448242C37.5781 0.448242 37.7197 0.56543 37.7197 0.799805C37.7197 1.92285 37.6709 3.61719 37.5732 5.88281C37.4854 8.14844 37.4414 9.84766 37.4414 10.9805C37.4414 11.293 37.4463 11.7666 37.4561 12.4014C37.4658 13.0264 37.4707 13.4951 37.4707 13.8076ZM57.9199 8.28516C57.9199 10.6484 57.2998 12.5625 56.0596 14.0273C54.7314 15.5801 52.9004 16.3564 50.5664 16.3564C50.1758 16.3564 49.585 16.3369 48.7939 16.2979C48.0127 16.249 47.4268 16.2246 47.0361 16.2246C46.6162 16.2246 46.4062 16.4053 46.4062 16.7666C46.4062 17.2158 46.4502 17.8848 46.5381 18.7734C46.626 19.6621 46.6699 20.3262 46.6699 20.7656C46.6699 20.9902 46.5674 21.1025 46.3623 21.1025C45.7666 21.1025 44.873 21.083 43.6816 21.0439C42.4902 21.0146 41.5967 21 41.001 21C40.7178 21 40.5762 20.8584 40.5762 20.5752C40.5762 19.4912 40.5908 17.8652 40.6201 15.6973C40.6592 13.5195 40.6787 11.8887 40.6787 10.8047C40.6787 7.73828 40.5469 4.51562 40.2832 1.13672L40.2686 0.931641C40.249 0.746094 40.3955 0.633789 40.708 0.594727C41.4697 0.49707 43.1494 0.448242 45.7471 0.448242C47.2803 0.448242 48.75 0.467773 50.1562 0.506836C52.4707 0.575195 54.3359 1.30273 55.752 2.68945C57.1973 4.11523 57.9199 5.98047 57.9199 8.28516ZM52.0752 8.51953C52.0752 6.24414 50.9668 5.10645 48.75 5.10645C47.1875 5.10645 46.3672 5.19434 46.2891 5.37012C46.2207 5.49707 46.1865 6.625 46.1865 8.75391C46.1865 9.05664 46.1963 9.50586 46.2158 10.1016C46.2451 10.6875 46.2598 11.1318 46.2598 11.4346C46.2598 11.6299 47.1387 11.7275 48.8965 11.7275C51.0156 11.7275 52.0752 10.6582 52.0752 8.51953ZM79.2627 20.6338C79.2627 20.8096 79.1406 20.9316 78.8965 21C78.6035 21.0781 77.6953 21.1172 76.1719 21.1172C74.7754 21.1172 73.877 21.0781 73.4766 21C73.1445 20.9316 72.9346 20.7119 72.8467 20.3408C72.5146 18.9346 72.2559 18.1826 72.0703 18.085C71.9141 18.0166 70.6055 17.9824 68.1445 17.9824C66.4844 17.9824 65.6006 18.0264 65.4932 18.1143C65.3271 18.2705 65.1416 18.793 64.9365 19.6816C64.751 20.4922 64.5264 20.9316 64.2627 21C63.9307 21.0781 62.8174 21.1172 60.9229 21.1172C59.4287 21.1172 58.6816 20.9756 58.6816 20.6924C58.6816 20.4385 59.7852 17.3184 61.9922 11.332C64.3848 4.85742 65.6836 1.29785 65.8887 0.65332C66.0059 0.282227 66.1426 0.0966797 66.2988 0.0966797C66.5625 0.0966797 66.9678 0.121094 67.5146 0.169922C68.0713 0.21875 68.4863 0.243164 68.7598 0.243164C69.0234 0.243164 69.4092 0.228516 69.917 0.199219C70.4346 0.160156 70.8203 0.140625 71.0742 0.140625C71.2598 0.140625 71.4307 0.301758 71.5869 0.624023C72.0654 1.64941 73.4619 5.16504 75.7764 11.1709C78.1006 17.2158 79.2627 20.3701 79.2627 20.6338ZM68.877 7.28906C68.6719 7.71875 68.3252 8.65137 67.8369 10.0869C67.3096 11.6104 67.0459 12.5039 67.0459 12.7676C67.0459 12.9434 67.3389 13.041 67.9248 13.0605C68.2275 13.0801 68.7256 13.0898 69.4189 13.0898C70.0635 13.0898 70.4199 13.0117 70.4883 12.8555C70.5078 12.8066 70.5176 12.7383 70.5176 12.6504C70.5176 12.3281 70.293 11.4395 69.8438 9.98438C69.4043 8.57812 69.082 7.67969 68.877 7.28906ZM97.5732 5.76562C97.5732 6.18555 97.4951 6.55176 97.3389 6.86426C96.0596 9.39355 94.3164 12.0547 92.1094 14.8477C91.7969 15.2578 91.6406 15.6289 91.6406 15.9609C91.6406 16.4785 91.6699 17.2549 91.7285 18.29C91.7871 19.3252 91.8164 20.0967 91.8164 20.6045C91.8164 20.7803 91.7773 20.8877 91.6992 20.9268C91.6797 20.9365 91.5479 20.9609 91.3037 21C90.9521 21.0586 90.0732 21.0879 88.667 21.0879C87.251 21.0879 86.3477 21.0586 85.957 21C85.6836 20.9609 85.5469 20.8193 85.5469 20.5752C85.5469 20.0576 85.5908 19.2715 85.6787 18.2168C85.7666 17.1523 85.8105 16.3564 85.8105 15.8291C85.8105 15.5166 85.6934 15.1797 85.459 14.8184C84.2773 13.1484 82.5879 10.5898 80.3906 7.14258C80.166 6.76172 80.0537 6.44922 80.0537 6.20508C80.0537 5.61914 80.0244 4.74023 79.9658 3.56836C79.9072 2.39648 79.8779 1.51758 79.8779 0.931641C79.8779 0.609375 79.9756 0.448242 80.1709 0.448242C80.7666 0.448242 81.6699 0.472656 82.8809 0.521484C84.0918 0.570312 85 0.594727 85.6055 0.594727C85.8301 0.594727 85.9424 0.667969 85.9424 0.814453C85.9424 1.3125 85.918 2.06445 85.8691 3.07031C85.8301 4.06641 85.8105 4.81348 85.8105 5.31152C85.8105 5.60449 86.2402 6.33691 87.0996 7.50879C87.7832 8.42676 88.3447 9.13477 88.7842 9.63281C89.1846 9.16406 89.7168 8.46094 90.3809 7.52344C91.2207 6.35156 91.6406 5.64355 91.6406 5.39941C91.6406 4.91113 91.6016 4.17383 91.5234 3.1875C91.4551 2.19141 91.4209 1.44922 91.4209 0.960938C91.4209 0.755859 91.4648 0.638672 91.5527 0.609375C91.5527 0.609375 91.6748 0.609375 91.9189 0.609375C92.5049 0.609375 93.3838 0.584961 94.5557 0.536133C95.7373 0.477539 96.626 0.448242 97.2217 0.448242C97.417 0.448242 97.5146 0.658203 97.5146 1.07812C97.5146 1.5957 97.5244 2.37695 97.5439 3.42188C97.5635 4.45703 97.5732 5.23828 97.5732 5.76562Z" fill="white"/>
</svg>
