<svg width="32" height="24" viewBox="0 0 32 24" fill="rgba(250,250,250,1)" xmlns="http://www.w3.org/2000/svg">
<path fill-rule="evenodd" clip-rule="evenodd" d="M15.0604 1.08686C13.4366 1.50824 12.2649 2.96933 12.2366 4.60797C12.2291 5.04417 12.3118 5.20782 12.657 5.43991C13.0317 5.69191 13.5778 5.56018 13.8253 5.15802C13.8868 5.05813 13.9556 4.81683 13.9783 4.62186C14.0451 4.04517 14.218 3.67168 14.5869 3.30722C14.9977 2.90129 15.4116 2.73279 15.9981 2.73279C16.5846 2.73279 16.9985 2.90129 17.4094 3.30722C17.8295 3.72229 18.0016 4.14246 17.9999 4.74821C17.9989 5.09496 17.9676 5.23602 17.8263 5.52995C17.614 5.97201 17.393 6.19605 16.7884 6.58199C15.7182 7.26535 15.119 8.33696 15.119 9.56811V10.0152L8.74593 13.6557C2.76321 17.0732 2.34728 17.3211 1.95573 17.7016C1.49092 18.1534 1.22098 18.6144 1.08314 19.1921C0.698857 20.8025 1.68022 22.4212 3.33515 22.9067C3.62355 22.9913 4.81438 23 16.0131 23H28.3727L28.8162 22.8529C29.6464 22.5776 30.3062 22.0062 30.6748 21.2435C31.4245 19.692 30.8507 18.0371 29.235 17.0907C28.9333 16.914 26.0294 15.2491 22.7818 13.391L16.8772 10.0126V9.65358C16.8772 8.85464 17.1252 8.44785 17.9402 7.91013C18.6216 7.46037 19.0163 7.04455 19.3325 6.4429C19.6427 5.85284 19.7489 5.41327 19.7489 4.7199C19.7489 3.6286 19.4308 2.87518 18.6406 2.09495C18.0685 1.53007 17.6488 1.2842 16.9595 1.10996C16.4177 0.97307 15.5401 0.962415 15.0604 1.08686ZM22.3251 15.1364C25.7271 17.0825 28.5957 18.7368 28.6998 18.8126C28.8038 18.8884 28.9564 19.0642 29.0388 19.2031C29.4499 19.8963 29.1765 20.7978 28.4564 21.1235L28.1466 21.2636L15.9287 21.2487L3.71088 21.2339L3.424 21.0586C3.24619 20.95 3.06966 20.7756 2.95972 20.5999C2.80605 20.3543 2.78237 20.2617 2.78237 19.9065C2.78237 19.5622 2.80851 19.4527 2.94606 19.2215C3.03614 19.0701 3.18119 18.8947 3.2684 18.8316C3.71164 18.511 15.9804 11.54 16.0542 11.5669C16.1012 11.584 18.9231 13.1903 22.3251 15.1364Z" fill="#716868" stroke="#716868" stroke-width="0.4"/>
</svg>
